HIERARCHY
ROOT Pelvis
{
	OFFSET 0.000000 0.941512 0.000000
	CHANNELS 6 Xposition Yposition Zposition Zrotation Yrotation Xrotation 
	JOINT Pelvis_L_Hip
	{
		OFFSET 0.000000 0.000000 0.000000
		CHANNELS 3 Zrotation Yrotation Xrotation
		JOINT L_Hip
		{
			OFFSET 0.062321 -0.080322 -0.016990
			CHANNELS 3 Zrotation Yrotation Xrotation
			JOINT L_Knee
			{
				OFFSET 0.093051 -0.381305 -0.029784
				CHANNELS 3 Zrotation Yrotation Xrotation
				JOINT L_Ankle
				{
					OFFSET -0.010371 -0.431000 -0.033614
					CHANNELS 3 Zrotation Yrotation Xrotation
					End Site #name: L_Foot
					{
						OFFSET 0.069299 -0.038670 0.119418
					}
				}
			}
		}
	}
	JOINT Pelvis_R_Hip
	{
		OFFSET 0.000000 0.000000 0.000000
		CHANNELS 3 Zrotation Yrotation Xrotation
		JOINT R_Hip
		{
			OFFSET -0.055334 -0.094904 -0.002373
			CHANNELS 3 Zrotation Yrotation Xrotation
			JOINT R_Knee
			{
				OFFSET -0.064207 -0.384370 -0.019592
				CHANNELS 3 Zrotation Yrotation Xrotation
				JOINT R_Ankle
				{
					OFFSET 0.025418 -0.419734 -0.065953
					CHANNELS 3 Zrotation Yrotation Xrotation
					End Site #name: R_Foot
					{
						OFFSET -0.057233 -0.039888 0.132134
					}
				}
			}
		}
	}
	JOINT Pelvis_Spine1
	{
		OFFSET 0.000000 0.000000 0.000000
		CHANNELS 3 Zrotation Yrotation Xrotation
		JOINT Spine1
		{
			OFFSET -0.005562 0.124093 -0.043360
			CHANNELS 3 Zrotation Yrotation Xrotation
			JOINT Spine2
			{
				OFFSET 0.012244 0.139499 0.029894
				CHANNELS 3 Zrotation Yrotation Xrotation
				JOINT Spine3
				{
					OFFSET -0.002556 0.056561 0.009225
					CHANNELS 3 Zrotation Yrotation Xrotation
					JOINT Spine3_Neck
					{
						OFFSET 0.000000 0.000000 0.000000
						CHANNELS 3 Zrotation Yrotation Xrotation
						JOINT Neck
						{
							OFFSET -0.005205 0.217920 -0.024551
							CHANNELS 3 Zrotation Yrotation Xrotation
							End Site #name: Head
							{
								OFFSET 0.002365 0.091850 0.046637
							}
						}
					}
					JOINT Spine3_L_Collar
					{
						OFFSET 0.000000 0.000000 0.000000
						CHANNELS 3 Zrotation Yrotation Xrotation
						JOINT L_Collar
						{
							OFFSET 0.072225 0.116603 -0.009480
							CHANNELS 3 Zrotation Yrotation Xrotation
							JOINT L_Shoulder
							{
								OFFSET 0.115937 -0.058643 -0.021018
								CHANNELS 3 Zrotation Yrotation Xrotation
								JOINT L_Elbow
								{
									OFFSET 0.021994 -0.254722 -0.024492
									CHANNELS 3 Zrotation Yrotation Xrotation
									End Site #name: L_Wrist
									{
										OFFSET 0.048810 -0.240214 0.103329
									}
								}
							}
						}
					}
					JOINT Spine3_R_Collar
					{
						OFFSET 0.000000 0.000000 0.000000
						CHANNELS 3 Zrotation Yrotation Xrotation
						JOINT R_Collar
						{
							OFFSET -0.073372 0.120704 -0.024611
							CHANNELS 3 Zrotation Yrotation Xrotation
							JOINT R_Shoulder
							{
								OFFSET -0.108089 -0.054969 -0.020504
								CHANNELS 3 Zrotation Yrotation Xrotation
								JOINT R_Elbow
								{
									OFFSET -0.033684 -0.260739 0.009889
									CHANNELS 3 Zrotation Yrotation Xrotation
									End Site #name: R_Wrist
									{
										OFFSET -0.067980 -0.232763 0.118463
									}
								}
							}
						}
					}
				}
			}
		}
	}
}
MOTION
Frames: 5
Frame Time: 0.041667
0.000000 0.974079 0.000000 -3.718923 -2.685433 -1.892541 0.000000 0.000000 0.000000 -3.667396 -0.675575 -3.414371 4.110049 -0.999082 11.395052 -2.558943 -8.751690 -0.242728 0.000000 0.000000 0.000000 7.057928 -0.965209 2.667103 -1.220071 0.003044 -2.585343 5.183332 4.664877 7.708178 0.000000 0.000000 0.000000 6.068916 -1.405718 0.813639 -3.225481 0.223058 -4.159056 0.858006 2.688654 7.186891 0.000000 0.000000 0.000000 -11.630304 7.813027 16.256899 0.000000 0.000000 0.000000 19.150362 -2.451003 2.168404 -21.467521 1.369209 -3.543071 -4.031521 -0.866479 3.632072 0.000000 0.000000 0.000000 -25.175152 5.536647 0.789876 25.867074 -2.146644 7.765673 -0.016288 0.944508 -3.226140 
0.002504 0.974206 -0.000128 -3.853563 -2.786351 -1.972204 0.000000 0.000000 0.000000 -3.695991 -0.649801 -3.323414 4.138203 -1.000763 11.345873 -2.429457 -8.728628 -0.439765 0.000000 0.000000 0.000000 7.049493 -0.950717 2.610410 -1.263492 0.030358 -2.281887 5.150578 4.689758 7.618104 0.000000 0.000000 0.000000 6.093678 -1.439331 1.018642 -3.104976 0.210445 -4.123209 0.923452 2.673938 7.215098 0.000000 0.000000 0.000000 -11.483644 7.732412 16.385527 0.000000 0.000000 0.000000 18.994880 -2.279790 2.253880 -21.603102 1.451064 -3.295821 -4.135786 -0.984010 3.317216 0.000000 0.000000 0.000000 -24.903928 5.419140 0.857430 25.386680 -2.071589 7.619521 -0.162221 0.811358 -3.049337 
0.006766 0.974308 0.000231 -3.939598 -2.752636 -1.903775 0.000000 0.000000 0.000000 -3.894831 -0.601530 -3.184773 4.202171 -0.988612 10.937117 -2.465582 -8.820615 -0.425331 0.000000 0.000000 0.000000 6.972799 -0.876736 2.307794 -1.434570 0.087347 -1.821083 5.049795 4.570117 7.503847 0.000000 0.000000 0.000000 6.110696 -1.451769 1.072124 -3.053162 0.203759 -4.123450 0.957086 2.598257 7.267346 0.000000 0.000000 0.000000 -11.365857 7.640472 16.259610 0.000000 0.000000 0.000000 19.024110 -2.322770 2.221959 -21.816785 1.532890 -3.078654 -4.168035 -0.950145 3.512309 0.000000 0.000000 0.000000 -24.907796 5.240656 1.014529 25.328127 -2.021442 7.484068 -0.289462 0.785430 -3.194919 
0.011851 0.974225 0.000672 -4.039974 -2.665206 -1.829465 0.000000 0.000000 0.000000 -4.115533 -0.548367 -3.035667 4.237736 -0.969701 10.499827 -2.519488 -8.941234 -0.396124 0.000000 0.000000 0.000000 6.929627 -0.782655 1.905762 -1.701098 0.172454 -1.192585 4.885139 4.354016 7.333521 0.000000 0.000000 0.000000 6.251959 -1.504430 1.211224 -3.068977 0.199934 -4.205902 0.934672 2.528653 7.254815 0.000000 0.000000 0.000000 -11.386717 7.606738 15.837620 0.000000 0.000000 0.000000 18.968448 -2.449965 2.118483 -21.860997 1.567035 -2.969943 -4.033487 -0.760218 4.080905 0.000000 0.000000 0.000000 -25.013288 5.179479 1.082411 25.390297 -2.029964 7.501379 -0.206724 0.927402 -3.520648 
0.017128 0.974005 0.000875 -4.244230 -2.616199 -1.725280 0.000000 0.000000 0.000000 -4.133541 -0.549362 -3.047361 4.083806 -0.933365 10.323788 -2.518319 -9.013763 -0.432547 0.000000 0.000000 0.000000 6.942487 -0.643575 1.288970 -1.871877 0.269957 -0.261423 4.680227 4.138405 7.077620 0.000000 0.000000 0.000000 6.431536 -1.560382 1.306863 -3.018489 0.187847 -4.287056 0.989306 2.472701 7.261061 0.000000 0.000000 0.000000 -11.540814 7.651517 15.264105 0.000000 0.000000 0.000000 18.890529 -2.558086 2.022895 -21.919669 1.561320 -3.009944 -3.756969 -0.506632 4.696030 0.000000 0.000000 0.000000 -25.051834 5.151986 1.114007 25.373916 -2.003644 7.430041 -0.101720 1.040812 -3.706121 
